<svg xmlns="http://www.w3.org/2000/svg" viewBox="0 0 1440 320"><path fill="#c6002b" fill-opacity="1" d="M0,96L34.3,90.7C68.6,85,137,75,206,64C274.3,53,343,43,411,53.3C480,64,549,96,617,106.7C685.7,117,754,107,823,117.3C891.4,128,960,160,1029,165.3C1097.1,171,1166,149,1234,128C1302.9,107,1371,85,1406,74.7L1440,64L1440,320L1405.7,320C1371.4,320,1303,320,1234,320C1165.7,320,1097,320,1029,320C960,320,891,320,823,320C754.3,320,686,320,617,320C548.6,320,480,320,411,320C342.9,320,274,320,206,320C137.1,320,69,320,34,320L0,320Z"></path></svg>